<svg width="334" height="67" viewBox="0 0 334 67" fill="none" xmlns="http://www.w3.org/2000/svg">
<path d="M18.2145 56.03C14.8989 56.03 11.9923 55.4486 9.49477 54.2857C7.04033 53.0797 5.12415 51.3999 3.74623 49.2464C2.3683 47.093 1.65781 44.5733 1.61475 41.6876H8.39673C8.43979 43.3242 8.80577 44.8318 9.49477 46.21C10.2268 47.5452 11.3248 48.6219 12.7889 49.4403C14.2529 50.2155 16.0615 50.6032 18.2145 50.6032C19.9799 50.6032 21.5301 50.3447 22.865 49.8279C24.1999 49.3111 25.2333 48.5573 25.9653 47.5667C26.7404 46.533 27.1279 45.2409 27.1279 43.6904C27.1279 42.1398 26.7619 40.8477 26.0299 39.814C25.3409 38.7803 24.372 37.919 23.1233 37.2298C21.8746 36.5406 20.4966 35.9377 18.9895 35.4208C17.4825 34.904 15.9323 34.3656 14.339 33.8057C10.5067 32.4705 7.64317 30.8338 5.74853 28.8957C3.89693 26.9144 2.97114 24.4164 2.97114 21.4014C2.97114 19.0325 3.57398 16.9436 4.77967 15.1347C5.98536 13.2826 7.68624 11.8398 9.88231 10.8061C12.0784 9.7724 14.6405 9.25555 17.5686 9.25555C20.4966 9.25555 23.0587 9.79391 25.2548 10.8707C27.4509 11.9475 29.1733 13.4334 30.422 15.3285C31.6708 17.2236 32.2952 19.4417 32.2952 21.9829H25.5132C25.4701 20.5184 25.1256 19.2479 24.4797 18.1711C23.8338 17.0513 22.9081 16.1684 21.7023 15.5223C20.4966 14.8762 18.9895 14.5532 17.181 14.5532C15.76 14.5532 14.4682 14.7685 13.3056 15.1993C12.143 15.63 11.2172 16.3191 10.5282 17.2667C9.88231 18.1711 9.55936 19.3771 9.55936 20.8846C9.55936 22.1336 9.81772 23.1889 10.3344 24.0502C10.8943 24.9116 11.6908 25.6654 12.7243 26.3114C13.8008 26.9144 15.0926 27.5174 16.5997 28.1204C18.1068 28.6803 19.8292 29.3264 21.7669 30.0586C24.0061 30.8338 26.0084 31.7598 27.7738 32.8366C29.5824 33.8703 31.0033 35.2055 32.0368 36.8422C33.1133 38.4358 33.6515 40.5032 33.6515 43.0443C33.6515 45.284 33.0702 47.3944 31.9076 49.3757C30.745 51.3569 29.0225 52.9721 26.7404 54.2211C24.4582 55.4271 21.6162 56.03 18.2145 56.03ZM51.149 55.2548C49.1251 55.2548 47.3382 54.9317 45.788 54.2857C44.2808 53.6396 43.1182 52.5628 42.3001 51.0554C41.525 49.548 41.1375 47.5021 41.1375 44.9179V28.0558H35.5827V23.2104H41.1375L41.848 15.1993H47.5965V23.2104H56.7038V28.0558H47.5965V44.9825C47.5965 47.0068 47.9625 48.3635 48.6946 49.0526C49.4696 49.7418 50.8044 50.0863 52.6992 50.0863H56.3162V55.2548H51.149ZM70.3268 56.03C67.7862 56.03 65.6547 55.5993 63.9323 54.7379C62.253 53.8334 61.0042 52.6275 60.1861 51.12C59.3679 49.6126 58.9589 47.9758 58.9589 46.21C58.9589 44.0995 59.4971 42.2905 60.5737 40.7831C61.6932 39.2757 63.2864 38.1128 65.3533 37.2944C67.4632 36.476 69.9823 36.0669 72.9104 36.0669H81.3717C81.3717 34.1287 81.0703 32.5351 80.4675 31.2861C79.9077 29.994 79.068 29.0464 77.9484 28.4434C76.8288 27.7974 75.4724 27.4743 73.8793 27.4743C71.8985 27.4743 70.176 27.9697 68.712 28.9603C67.291 29.9079 66.4298 31.4153 66.1284 33.4827H59.6694C59.9277 31.1138 60.6812 29.1326 61.93 27.539C63.2218 25.9023 64.9012 24.6532 66.9681 23.7918C69.035 22.8873 71.3386 22.4351 73.8793 22.4351C76.9365 22.4351 79.4986 22.9735 81.5655 24.0502C83.6754 25.127 85.2473 26.656 86.2808 28.6372C87.3142 30.5754 87.8309 32.8797 87.8309 35.5501V55.2548H82.4698L81.8239 49.8925H81.5655C80.9626 50.9262 80.2521 51.8307 79.434 52.6059C78.6158 53.3381 77.7331 53.9627 76.7858 54.4795C75.8816 54.9963 74.8696 55.384 73.7501 55.6424C72.6735 55.9008 71.5324 56.03 70.3268 56.03ZM71.877 50.797C73.384 50.797 74.6973 50.5171 75.817 49.9571C76.9796 49.3972 77.9484 48.6435 78.7235 47.6959C79.5416 46.7053 80.1445 45.607 80.5321 44.401C80.9626 43.195 81.1995 41.946 81.2426 40.6539H73.5563C71.6616 40.6539 70.133 40.8692 68.9704 41.3C67.8508 41.7307 67.0327 42.3336 66.5159 43.1089C65.9992 43.8842 65.7409 44.7887 65.7409 45.8223C65.7409 46.8129 65.9776 47.6959 66.4514 48.4712C66.9681 49.2034 67.6786 49.7848 68.5828 50.2155C69.5301 50.6032 70.6282 50.797 71.877 50.797ZM112.022 56.03C110.257 56.03 108.598 55.7716 107.048 55.2548C105.498 54.7379 104.098 53.9842 102.85 52.9936C101.644 52.003 100.568 50.7539 99.6204 49.2464H99.362L98.9099 55.2548H93.4843V10.0308H99.9433V28.1204C100.977 26.656 102.441 25.3424 104.335 24.1795C106.23 23.0166 108.598 22.4351 111.44 22.4351C114.756 22.4351 117.576 23.1673 119.902 24.6317C122.227 26.0961 123.992 28.0989 125.198 30.64C126.447 33.1811 127.071 36.0454 127.071 39.2326C127.071 42.4198 126.447 45.284 125.198 47.8251C123.992 50.3663 122.248 52.369 119.966 53.8334C117.727 55.2979 115.079 56.03 112.022 56.03ZM110.278 50.5386C112.388 50.5386 114.197 50.0648 115.703 49.1172C117.254 48.1697 118.437 46.856 119.256 45.1763C120.117 43.4534 120.548 41.4723 120.548 39.2326C120.548 36.9499 120.117 34.9686 119.256 33.2889C118.437 31.6091 117.254 30.2955 115.703 29.3479C114.197 28.4003 112.388 27.9266 110.278 27.9266C108.211 27.9266 106.402 28.4003 104.852 29.3479C103.302 30.2955 102.096 31.6091 101.235 33.2889C100.417 34.9686 100.008 36.9499 100.008 39.2326C100.008 41.4723 100.417 43.4534 101.235 45.1763C102.096 46.856 103.302 48.1697 104.852 49.1172C106.402 50.0648 108.211 50.5386 110.278 50.5386ZM131.582 55.2548V10.0308H138.041V55.2548H131.582ZM158.674 56.03C155.53 56.03 152.753 55.3409 150.342 53.9627C147.931 52.5413 146.035 50.5817 144.658 48.0835C143.28 45.5854 142.591 42.6567 142.591 39.2972C142.591 35.9377 143.258 33.0089 144.593 30.5108C145.971 27.9697 147.866 25.9884 150.277 24.5671C152.731 23.1458 155.552 22.4351 158.738 22.4351C161.925 22.4351 164.659 23.1458 166.941 24.5671C169.223 25.9453 170.989 27.7759 172.238 30.0586C173.53 32.3413 174.175 34.8825 174.175 37.682C174.175 38.1128 174.175 38.5865 174.175 39.1034C174.175 39.6202 174.132 40.1586 174.046 40.7185H147.306V36.1961H167.716C167.587 33.4396 166.683 31.3076 165.004 29.8001C163.324 28.2496 161.214 27.4743 158.674 27.4743C156.951 27.4743 155.336 27.862 153.83 28.6372C152.365 29.4125 151.181 30.5754 150.277 32.126C149.373 33.6765 148.921 35.6362 148.921 38.0051V39.814C148.921 42.1829 149.373 44.1857 150.277 45.8223C151.181 47.416 152.365 48.6219 153.83 49.4403C155.336 50.2586 156.93 50.6678 158.609 50.6678C160.676 50.6678 162.377 50.2155 163.712 49.3111C165.089 48.3635 166.102 47.093 166.748 45.4993H173.271C172.669 47.5236 171.7 49.3326 170.365 50.9262C169.029 52.4767 167.372 53.7257 165.391 54.6733C163.453 55.5778 161.214 56.03 158.674 56.03ZM193.694 56.03C190.377 56.03 187.471 55.4486 184.974 54.2857C182.52 53.0797 180.603 51.3999 179.225 49.2464C177.847 47.093 177.136 44.5733 177.094 41.6876H183.876C183.918 43.3242 184.285 44.8318 184.974 46.21C185.706 47.5452 186.804 48.6219 188.268 49.4403C189.732 50.2155 191.54 50.6032 193.694 50.6032C195.459 50.6032 197.009 50.3447 198.344 49.8279C199.678 49.3111 200.712 48.5573 201.444 47.5667C202.22 46.533 202.607 45.2409 202.607 43.6904C202.607 42.1398 202.241 40.8477 201.509 39.814C200.82 38.7803 199.851 37.919 198.603 37.2298C197.353 36.5406 195.976 35.9377 194.469 35.4208C192.961 34.904 191.411 34.3656 189.818 33.8057C185.985 32.4705 183.122 30.8338 181.228 28.8957C179.376 26.9144 178.45 24.4164 178.45 21.4014C178.45 19.0325 179.053 16.9436 180.259 15.1347C181.464 13.2826 183.165 11.8398 185.361 10.8061C187.558 9.7724 190.119 9.25555 193.048 9.25555C195.976 9.25555 198.538 9.79391 200.734 10.8707C202.93 11.9475 204.652 13.4334 205.901 15.3285C207.15 17.2236 207.774 19.4417 207.774 21.9829H200.992C200.949 20.5184 200.605 19.2479 199.959 18.1711C199.313 17.0513 198.387 16.1684 197.182 15.5223C195.976 14.8762 194.469 14.5532 192.66 14.5532C191.239 14.5532 189.947 14.7685 188.785 15.1993C187.622 15.63 186.696 16.3191 186.007 17.2667C185.361 18.1711 185.039 19.3771 185.039 20.8846C185.039 22.1336 185.297 23.1889 185.814 24.0502C186.373 24.9116 187.17 25.6654 188.203 26.3114C189.279 26.9144 190.571 27.5174 192.079 28.1204C193.586 28.6803 195.308 29.3264 197.246 30.0586C199.485 30.8338 201.487 31.7598 203.253 32.8366C205.062 33.8703 206.483 35.2055 207.516 36.8422C208.592 38.4358 209.131 40.5032 209.131 43.0443C209.131 45.284 208.549 47.3944 207.387 49.3757C206.224 51.3569 204.501 52.9721 202.22 54.2211C199.937 55.4271 197.095 56.03 193.694 56.03ZM226.628 55.2548C224.604 55.2548 222.817 54.9317 221.267 54.2857C219.76 53.6396 218.597 52.5628 217.779 51.0554C217.004 49.548 216.616 47.5021 216.616 44.9179V28.0558H211.062V23.2104H216.616L217.327 15.1993H223.075V23.2104H232.183V28.0558H223.075V44.9825C223.075 47.0068 223.442 48.3635 224.173 49.0526C224.949 49.7418 226.284 50.0863 228.178 50.0863H231.795V55.2548H226.628ZM245.805 56.03C243.265 56.03 241.134 55.5993 239.411 54.7379C237.731 53.8334 236.483 52.6275 235.665 51.12C234.847 49.6126 234.437 47.9758 234.437 46.21C234.437 44.0995 234.976 42.2905 236.052 40.7831C237.172 39.2757 238.765 38.1128 240.832 37.2944C242.942 36.476 245.461 36.0669 248.389 36.0669H256.85C256.85 34.1287 256.549 32.5351 255.946 31.2861C255.387 29.994 254.547 29.0464 253.427 28.4434C252.308 27.7974 250.951 27.4743 249.358 27.4743C247.378 27.4743 245.655 27.9697 244.191 28.9603C242.77 29.9079 241.909 31.4153 241.607 33.4827H235.148C235.406 31.1138 236.16 29.1326 237.409 27.539C238.7 25.9023 240.38 24.6532 242.447 23.7918C244.513 22.8873 246.817 22.4351 249.358 22.4351C252.416 22.4351 254.977 22.9735 257.044 24.0502C259.154 25.127 260.726 26.656 261.759 28.6372C262.793 30.5754 263.309 32.8797 263.309 35.5501V55.2548H257.948L257.302 49.8925H257.044C256.441 50.9262 255.731 51.8307 254.913 52.6059C254.095 53.3381 253.212 53.9627 252.264 54.4795C251.36 54.9963 250.349 55.384 249.229 55.6424C248.153 55.9008 247.011 56.03 245.805 56.03ZM247.355 50.797C248.863 50.797 250.176 50.5171 251.295 49.9571C252.458 49.3972 253.427 48.6435 254.202 47.6959C255.02 46.7053 255.623 45.607 256.011 44.401C256.441 43.195 256.679 41.946 256.721 40.6539H249.035C247.14 40.6539 245.612 40.8692 244.449 41.3C243.33 41.7307 242.511 42.3336 241.994 43.1089C241.478 43.8842 241.219 44.7887 241.219 45.8223C241.219 46.8129 241.456 47.6959 241.93 48.4712C242.447 49.2034 243.157 49.7848 244.061 50.2155C245.009 50.6032 246.107 50.797 247.355 50.797ZM283.508 56.03C280.106 56.03 277.178 55.3194 274.724 53.8981C272.313 52.4767 270.44 50.5171 269.105 48.0189C267.813 45.4778 267.167 42.549 267.167 39.2326C267.167 35.9162 267.856 33.0089 269.234 30.5108C270.655 27.9697 272.592 25.9884 275.047 24.5671C277.545 23.1458 280.365 22.4351 283.508 22.4351C287.427 22.4351 290.721 23.4688 293.391 25.5362C296.06 27.5605 297.739 30.2955 298.429 33.7411H291.711C291.324 31.7598 290.355 30.2524 288.805 29.2187C287.298 28.1419 285.511 27.6036 283.444 27.6036C281.721 27.6036 280.128 28.0343 278.664 28.8957C277.2 29.7571 276.016 31.0492 275.111 32.772C274.207 34.4949 273.755 36.6483 273.755 39.2326C273.755 41.0846 273.992 42.7213 274.466 44.1426C274.982 45.5208 275.672 46.7053 276.532 47.6959C277.393 48.6435 278.406 49.3757 279.568 49.8925C280.774 50.3663 282.066 50.6032 283.444 50.6032C284.821 50.6032 286.071 50.3878 287.19 49.9571C288.352 49.4834 289.321 48.7942 290.096 47.8897C290.915 46.9852 291.453 45.9301 291.711 44.7241H298.429C297.739 48.1266 296.06 50.8616 293.391 52.929C290.721 54.9964 287.427 56.03 283.508 56.03ZM323.437 55.2548L308.387 37.6174L321.887 23.2104H329.702L313.684 40.0724V35.2916L331.64 55.2548H323.437ZM302.962 55.2548V10.0308H309.421V55.2548H302.962Z" fill="white"/>
</svg>
